<mxfile host="Electron" modified="2023-08-09T08:05:42.410Z" agent="Mozilla/5.0 (Windows NT 10.0; Win64; x64) AppleWebKit/537.36 (KHTML, like Gecko) draw.io/21.5.1 Chrome/112.0.5615.204 Electron/24.6.0 Safari/537.36" etag="I6iGztmywPEmm6mV2-5z" version="21.5.1" type="device">
  <diagram id="C5RBs43oDa-KdzZeNtuy" name="Page-1">
    <mxGraphModel dx="2049" dy="1206" grid="1" gridSize="10" guides="1" tooltips="1" connect="1" arrows="1" fold="1" page="1" pageScale="1" pageWidth="1169" pageHeight="827" math="0" shadow="0">
      <root>
        <mxCell id="WIyWlLk6GJQsqaUBKTNV-0" />
        <mxCell id="WIyWlLk6GJQsqaUBKTNV-1" parent="WIyWlLk6GJQsqaUBKTNV-0" />
        <mxCell id="ltN9Z3ExstUyf28XhYFt-11" style="edgeStyle=orthogonalEdgeStyle;rounded=0;orthogonalLoop=1;jettySize=auto;html=1;" parent="WIyWlLk6GJQsqaUBKTNV-1" source="WIyWlLk6GJQsqaUBKTNV-3" target="ltN9Z3ExstUyf28XhYFt-1" edge="1">
          <mxGeometry relative="1" as="geometry" />
        </mxCell>
        <mxCell id="WIyWlLk6GJQsqaUBKTNV-3" value="初始化&lt;br&gt;创建UDP服务" style="rounded=1;whiteSpace=wrap;html=1;fontSize=12;glass=0;strokeWidth=1;shadow=0;" parent="WIyWlLk6GJQsqaUBKTNV-1" vertex="1">
          <mxGeometry x="320" y="40" width="120" height="40" as="geometry" />
        </mxCell>
        <mxCell id="ltN9Z3ExstUyf28XhYFt-14" style="edgeStyle=orthogonalEdgeStyle;rounded=0;orthogonalLoop=1;jettySize=auto;html=1;" parent="WIyWlLk6GJQsqaUBKTNV-1" source="WIyWlLk6GJQsqaUBKTNV-10" target="ltN9Z3ExstUyf28XhYFt-2" edge="1">
          <mxGeometry relative="1" as="geometry" />
        </mxCell>
        <mxCell id="WIyWlLk6GJQsqaUBKTNV-10" value="校验数据" style="rhombus;whiteSpace=wrap;html=1;shadow=0;fontFamily=Helvetica;fontSize=12;align=center;strokeWidth=1;spacing=6;spacingTop=-4;" parent="WIyWlLk6GJQsqaUBKTNV-1" vertex="1">
          <mxGeometry x="320" y="200" width="120" height="40" as="geometry" />
        </mxCell>
        <mxCell id="ltN9Z3ExstUyf28XhYFt-13" style="edgeStyle=orthogonalEdgeStyle;rounded=0;orthogonalLoop=1;jettySize=auto;html=1;entryX=0.5;entryY=0;entryDx=0;entryDy=0;" parent="WIyWlLk6GJQsqaUBKTNV-1" source="ltN9Z3ExstUyf28XhYFt-1" target="WIyWlLk6GJQsqaUBKTNV-10" edge="1">
          <mxGeometry relative="1" as="geometry" />
        </mxCell>
        <mxCell id="ltN9Z3ExstUyf28XhYFt-1" value="等待接收数据" style="rounded=1;whiteSpace=wrap;html=1;fontSize=12;glass=0;strokeWidth=1;shadow=0;" parent="WIyWlLk6GJQsqaUBKTNV-1" vertex="1">
          <mxGeometry x="320" y="120" width="120" height="40" as="geometry" />
        </mxCell>
        <mxCell id="ltN9Z3ExstUyf28XhYFt-15" style="edgeStyle=orthogonalEdgeStyle;rounded=0;orthogonalLoop=1;jettySize=auto;html=1;" parent="WIyWlLk6GJQsqaUBKTNV-1" source="ltN9Z3ExstUyf28XhYFt-2" target="ltN9Z3ExstUyf28XhYFt-3" edge="1">
          <mxGeometry relative="1" as="geometry">
            <Array as="points">
              <mxPoint x="141" y="300" />
            </Array>
          </mxGeometry>
        </mxCell>
        <mxCell id="ltN9Z3ExstUyf28XhYFt-26" style="edgeStyle=orthogonalEdgeStyle;rounded=0;orthogonalLoop=1;jettySize=auto;html=1;entryX=0.5;entryY=0;entryDx=0;entryDy=0;" parent="WIyWlLk6GJQsqaUBKTNV-1" source="ltN9Z3ExstUyf28XhYFt-2" target="ltN9Z3ExstUyf28XhYFt-4" edge="1">
          <mxGeometry relative="1" as="geometry" />
        </mxCell>
        <mxCell id="ltN9Z3ExstUyf28XhYFt-2" value="数据处理" style="rounded=1;whiteSpace=wrap;html=1;fontSize=12;glass=0;strokeWidth=1;shadow=0;" parent="WIyWlLk6GJQsqaUBKTNV-1" vertex="1">
          <mxGeometry x="320" y="280" width="120" height="40" as="geometry" />
        </mxCell>
        <mxCell id="ltN9Z3ExstUyf28XhYFt-24" style="edgeStyle=orthogonalEdgeStyle;rounded=0;orthogonalLoop=1;jettySize=auto;html=1;entryX=0.5;entryY=0;entryDx=0;entryDy=0;" parent="WIyWlLk6GJQsqaUBKTNV-1" source="ltN9Z3ExstUyf28XhYFt-7" target="ltN9Z3ExstUyf28XhYFt-1" edge="1">
          <mxGeometry relative="1" as="geometry">
            <Array as="points">
              <mxPoint x="300" y="540" />
              <mxPoint x="40" y="540" />
              <mxPoint x="40" y="280" />
              <mxPoint x="280" y="280" />
              <mxPoint x="280" y="100" />
              <mxPoint x="380" y="100" />
            </Array>
          </mxGeometry>
        </mxCell>
        <mxCell id="ltN9Z3ExstUyf28XhYFt-19" style="edgeStyle=orthogonalEdgeStyle;rounded=0;orthogonalLoop=1;jettySize=auto;html=1;exitX=0.5;exitY=1;exitDx=0;exitDy=0;" parent="WIyWlLk6GJQsqaUBKTNV-1" source="ltN9Z3ExstUyf28XhYFt-8" edge="1">
          <mxGeometry relative="1" as="geometry">
            <mxPoint x="140" y="680" as="sourcePoint" />
            <mxPoint x="380" y="120" as="targetPoint" />
            <Array as="points">
              <mxPoint x="140" y="680" />
              <mxPoint x="40" y="680" />
              <mxPoint x="40" y="280" />
              <mxPoint x="280" y="280" />
              <mxPoint x="280" y="100" />
              <mxPoint x="380" y="100" />
            </Array>
          </mxGeometry>
        </mxCell>
        <mxCell id="ltN9Z3ExstUyf28XhYFt-35" style="edgeStyle=orthogonalEdgeStyle;rounded=0;orthogonalLoop=1;jettySize=auto;html=1;entryX=0.5;entryY=0;entryDx=0;entryDy=0;" parent="WIyWlLk6GJQsqaUBKTNV-1" source="ltN9Z3ExstUyf28XhYFt-28" target="ltN9Z3ExstUyf28XhYFt-1" edge="1">
          <mxGeometry relative="1" as="geometry">
            <Array as="points">
              <mxPoint x="720" y="500" />
              <mxPoint x="720" y="100" />
              <mxPoint x="380" y="100" />
            </Array>
          </mxGeometry>
        </mxCell>
        <mxCell id="ltN9Z3ExstUyf28XhYFt-37" style="edgeStyle=orthogonalEdgeStyle;rounded=0;orthogonalLoop=1;jettySize=auto;html=1;entryX=0.5;entryY=0;entryDx=0;entryDy=0;" parent="WIyWlLk6GJQsqaUBKTNV-1" source="ltN9Z3ExstUyf28XhYFt-29" target="ltN9Z3ExstUyf28XhYFt-1" edge="1">
          <mxGeometry relative="1" as="geometry">
            <Array as="points">
              <mxPoint x="720" y="600" />
              <mxPoint x="720" y="100" />
              <mxPoint x="380" y="100" />
            </Array>
          </mxGeometry>
        </mxCell>
        <mxCell id="ltN9Z3ExstUyf28XhYFt-42" style="edgeStyle=orthogonalEdgeStyle;rounded=0;orthogonalLoop=1;jettySize=auto;html=1;entryX=0.5;entryY=0;entryDx=0;entryDy=0;" parent="WIyWlLk6GJQsqaUBKTNV-1" source="ltN9Z3ExstUyf28XhYFt-39" target="ltN9Z3ExstUyf28XhYFt-1" edge="1">
          <mxGeometry relative="1" as="geometry">
            <Array as="points">
              <mxPoint x="720" y="680" />
              <mxPoint x="720" y="100" />
              <mxPoint x="380" y="100" />
            </Array>
          </mxGeometry>
        </mxCell>
        <mxCell id="ltN9Z3ExstUyf28XhYFt-59" style="edgeStyle=orthogonalEdgeStyle;rounded=0;orthogonalLoop=1;jettySize=auto;html=1;" parent="WIyWlLk6GJQsqaUBKTNV-1" source="ltN9Z3ExstUyf28XhYFt-45" edge="1">
          <mxGeometry relative="1" as="geometry">
            <mxPoint x="900" y="120" as="targetPoint" />
          </mxGeometry>
        </mxCell>
        <mxCell id="ltN9Z3ExstUyf28XhYFt-45" value="创建UDP服务" style="rounded=1;whiteSpace=wrap;html=1;fontSize=12;glass=0;strokeWidth=1;shadow=0;" parent="WIyWlLk6GJQsqaUBKTNV-1" vertex="1">
          <mxGeometry x="840" y="40" width="120" height="40" as="geometry" />
        </mxCell>
        <mxCell id="ltN9Z3ExstUyf28XhYFt-60" style="edgeStyle=orthogonalEdgeStyle;rounded=0;orthogonalLoop=1;jettySize=auto;html=1;" parent="WIyWlLk6GJQsqaUBKTNV-1" target="ltN9Z3ExstUyf28XhYFt-56" edge="1">
          <mxGeometry relative="1" as="geometry">
            <mxPoint x="900" y="160" as="sourcePoint" />
          </mxGeometry>
        </mxCell>
        <mxCell id="ltN9Z3ExstUyf28XhYFt-61" style="edgeStyle=orthogonalEdgeStyle;rounded=0;orthogonalLoop=1;jettySize=auto;html=1;" parent="WIyWlLk6GJQsqaUBKTNV-1" source="ltN9Z3ExstUyf28XhYFt-56" target="ltN9Z3ExstUyf28XhYFt-57" edge="1">
          <mxGeometry relative="1" as="geometry" />
        </mxCell>
        <mxCell id="ltN9Z3ExstUyf28XhYFt-62" style="edgeStyle=orthogonalEdgeStyle;rounded=0;orthogonalLoop=1;jettySize=auto;html=1;" parent="WIyWlLk6GJQsqaUBKTNV-1" source="ltN9Z3ExstUyf28XhYFt-56" target="ltN9Z3ExstUyf28XhYFt-58" edge="1">
          <mxGeometry relative="1" as="geometry" />
        </mxCell>
        <mxCell id="ltN9Z3ExstUyf28XhYFt-56" value="读取数据" style="rhombus;whiteSpace=wrap;html=1;shadow=0;fontFamily=Helvetica;fontSize=12;align=center;strokeWidth=1;spacing=6;spacingTop=-4;" parent="WIyWlLk6GJQsqaUBKTNV-1" vertex="1">
          <mxGeometry x="840" y="200" width="120" height="40" as="geometry" />
        </mxCell>
        <mxCell id="ltN9Z3ExstUyf28XhYFt-63" style="edgeStyle=orthogonalEdgeStyle;rounded=0;orthogonalLoop=1;jettySize=auto;html=1;entryX=0.5;entryY=0;entryDx=0;entryDy=0;" parent="WIyWlLk6GJQsqaUBKTNV-1" source="ltN9Z3ExstUyf28XhYFt-57" edge="1">
          <mxGeometry relative="1" as="geometry">
            <mxPoint x="900" y="120" as="targetPoint" />
            <Array as="points">
              <mxPoint x="800" y="300" />
              <mxPoint x="800" y="100" />
              <mxPoint x="900" y="100" />
            </Array>
          </mxGeometry>
        </mxCell>
        <mxCell id="ltN9Z3ExstUyf28XhYFt-57" value="处理数据" style="rounded=1;whiteSpace=wrap;html=1;fontSize=12;glass=0;strokeWidth=1;shadow=0;" parent="WIyWlLk6GJQsqaUBKTNV-1" vertex="1">
          <mxGeometry x="840" y="280" width="120" height="40" as="geometry" />
        </mxCell>
        <mxCell id="ltN9Z3ExstUyf28XhYFt-48" value="" style="endArrow=none;dashed=1;html=1;movable=1;resizable=1;rotatable=1;deletable=1;editable=1;locked=0;connectable=1;strokeWidth=3;curved=1;fillColor=#d80073;strokeColor=#A50040;" parent="WIyWlLk6GJQsqaUBKTNV-1" edge="1">
          <mxGeometry width="50" height="50" relative="1" as="geometry">
            <mxPoint x="20" y="790" as="sourcePoint" />
            <mxPoint x="20" y="240" as="targetPoint" />
          </mxGeometry>
        </mxCell>
        <mxCell id="ltN9Z3ExstUyf28XhYFt-49" value="" style="endArrow=none;dashed=1;html=1;movable=1;resizable=1;rotatable=1;deletable=1;editable=1;locked=0;connectable=1;strokeWidth=3;curved=1;fillColor=#d80073;strokeColor=#A50040;" parent="WIyWlLk6GJQsqaUBKTNV-1" edge="1">
          <mxGeometry width="50" height="50" relative="1" as="geometry">
            <mxPoint x="20" y="790" as="sourcePoint" />
            <mxPoint x="740" y="790" as="targetPoint" />
          </mxGeometry>
        </mxCell>
        <mxCell id="ltN9Z3ExstUyf28XhYFt-50" value="" style="endArrow=none;dashed=1;html=1;movable=1;resizable=1;rotatable=1;deletable=1;editable=1;locked=0;connectable=1;strokeWidth=3;curved=1;fillColor=#d80073;strokeColor=#A50040;" parent="WIyWlLk6GJQsqaUBKTNV-1" edge="1">
          <mxGeometry width="50" height="50" relative="1" as="geometry">
            <mxPoint x="740" y="90" as="sourcePoint" />
            <mxPoint x="740" y="790" as="targetPoint" />
          </mxGeometry>
        </mxCell>
        <mxCell id="ltN9Z3ExstUyf28XhYFt-52" value="" style="endArrow=none;dashed=1;html=1;movable=1;resizable=1;rotatable=1;deletable=1;editable=1;locked=0;connectable=1;strokeWidth=3;curved=1;fillColor=#d80073;strokeColor=#A50040;" parent="WIyWlLk6GJQsqaUBKTNV-1" edge="1">
          <mxGeometry width="50" height="50" relative="1" as="geometry">
            <mxPoint x="740" y="90" as="sourcePoint" />
            <mxPoint x="240" y="90" as="targetPoint" />
          </mxGeometry>
        </mxCell>
        <mxCell id="ltN9Z3ExstUyf28XhYFt-10" value="距上次广播1S" style="rhombus;whiteSpace=wrap;html=1;shadow=0;fontFamily=Helvetica;fontSize=12;align=center;strokeWidth=1;spacing=6;spacingTop=-4;" parent="WIyWlLk6GJQsqaUBKTNV-1" vertex="1">
          <mxGeometry x="181" y="640" width="120" height="40" as="geometry" />
        </mxCell>
        <mxCell id="ltN9Z3ExstUyf28XhYFt-9" value="回复广播" style="rounded=1;whiteSpace=wrap;html=1;fontSize=12;glass=0;strokeWidth=1;shadow=0;" parent="WIyWlLk6GJQsqaUBKTNV-1" vertex="1">
          <mxGeometry x="181" y="720" width="120" height="40" as="geometry" />
        </mxCell>
        <mxCell id="ltN9Z3ExstUyf28XhYFt-25" style="edgeStyle=orthogonalEdgeStyle;rounded=0;orthogonalLoop=1;jettySize=auto;html=1;" parent="WIyWlLk6GJQsqaUBKTNV-1" source="ltN9Z3ExstUyf28XhYFt-10" target="ltN9Z3ExstUyf28XhYFt-9" edge="1">
          <mxGeometry relative="1" as="geometry" />
        </mxCell>
        <mxCell id="ltN9Z3ExstUyf28XhYFt-4" value="连接指令" style="rounded=1;whiteSpace=wrap;html=1;fontSize=12;glass=0;strokeWidth=1;shadow=0;" parent="WIyWlLk6GJQsqaUBKTNV-1" vertex="1">
          <mxGeometry x="560" y="320" width="120" height="40" as="geometry" />
        </mxCell>
        <mxCell id="ltN9Z3ExstUyf28XhYFt-3" value="查询指令" style="rounded=1;whiteSpace=wrap;html=1;fontSize=12;glass=0;strokeWidth=1;shadow=0;" parent="WIyWlLk6GJQsqaUBKTNV-1" vertex="1">
          <mxGeometry x="80" y="320" width="120" height="40" as="geometry" />
        </mxCell>
        <mxCell id="ltN9Z3ExstUyf28XhYFt-5" value="是否存在sn" style="rhombus;whiteSpace=wrap;html=1;shadow=0;fontFamily=Helvetica;fontSize=12;align=center;strokeWidth=1;spacing=6;spacingTop=-4;" parent="WIyWlLk6GJQsqaUBKTNV-1" vertex="1">
          <mxGeometry x="240" y="400" width="120" height="40" as="geometry" />
        </mxCell>
        <mxCell id="ltN9Z3ExstUyf28XhYFt-16" style="edgeStyle=orthogonalEdgeStyle;rounded=0;orthogonalLoop=1;jettySize=auto;html=1;entryX=0.5;entryY=0;entryDx=0;entryDy=0;" parent="WIyWlLk6GJQsqaUBKTNV-1" source="ltN9Z3ExstUyf28XhYFt-3" target="ltN9Z3ExstUyf28XhYFt-5" edge="1">
          <mxGeometry relative="1" as="geometry" />
        </mxCell>
        <mxCell id="ltN9Z3ExstUyf28XhYFt-7" value="sn与本机一致" style="rhombus;whiteSpace=wrap;html=1;shadow=0;fontFamily=Helvetica;fontSize=12;align=center;strokeWidth=1;spacing=6;spacingTop=-4;" parent="WIyWlLk6GJQsqaUBKTNV-1" vertex="1">
          <mxGeometry x="240" y="480" width="120" height="40" as="geometry" />
        </mxCell>
        <mxCell id="ltN9Z3ExstUyf28XhYFt-18" style="edgeStyle=orthogonalEdgeStyle;rounded=0;orthogonalLoop=1;jettySize=auto;html=1;" parent="WIyWlLk6GJQsqaUBKTNV-1" source="ltN9Z3ExstUyf28XhYFt-5" target="ltN9Z3ExstUyf28XhYFt-7" edge="1">
          <mxGeometry relative="1" as="geometry" />
        </mxCell>
        <mxCell id="ltN9Z3ExstUyf28XhYFt-22" style="edgeStyle=orthogonalEdgeStyle;rounded=0;orthogonalLoop=1;jettySize=auto;html=1;entryX=0.5;entryY=0;entryDx=0;entryDy=0;" parent="WIyWlLk6GJQsqaUBKTNV-1" source="ltN9Z3ExstUyf28XhYFt-7" target="ltN9Z3ExstUyf28XhYFt-10" edge="1">
          <mxGeometry relative="1" as="geometry">
            <Array as="points">
              <mxPoint x="300" y="580" />
              <mxPoint x="241" y="580" />
            </Array>
          </mxGeometry>
        </mxCell>
        <mxCell id="ltN9Z3ExstUyf28XhYFt-8" value="IP是否已连接" style="rhombus;whiteSpace=wrap;html=1;shadow=0;fontFamily=Helvetica;fontSize=12;align=center;strokeWidth=1;spacing=6;spacingTop=-4;" parent="WIyWlLk6GJQsqaUBKTNV-1" vertex="1">
          <mxGeometry x="80" y="560" width="120" height="40" as="geometry" />
        </mxCell>
        <mxCell id="ltN9Z3ExstUyf28XhYFt-17" style="edgeStyle=orthogonalEdgeStyle;rounded=0;orthogonalLoop=1;jettySize=auto;html=1;" parent="WIyWlLk6GJQsqaUBKTNV-1" source="ltN9Z3ExstUyf28XhYFt-5" target="ltN9Z3ExstUyf28XhYFt-8" edge="1">
          <mxGeometry relative="1" as="geometry" />
        </mxCell>
        <mxCell id="ltN9Z3ExstUyf28XhYFt-23" style="edgeStyle=orthogonalEdgeStyle;rounded=0;orthogonalLoop=1;jettySize=auto;html=1;entryX=0.5;entryY=0;entryDx=0;entryDy=0;" parent="WIyWlLk6GJQsqaUBKTNV-1" source="ltN9Z3ExstUyf28XhYFt-8" target="ltN9Z3ExstUyf28XhYFt-10" edge="1">
          <mxGeometry relative="1" as="geometry">
            <Array as="points">
              <mxPoint x="241" y="580" />
            </Array>
          </mxGeometry>
        </mxCell>
        <mxCell id="ltN9Z3ExstUyf28XhYFt-44" value="此处可能造成两个&lt;br&gt;不在同一网段的局&lt;br&gt;域网轮流广播时，&lt;br&gt;其中一个收不到回&lt;br&gt;复广播的情况，需&lt;br&gt;增加网卡列表判断" style="text;html=1;align=center;verticalAlign=middle;resizable=0;points=[];autosize=1;strokeColor=none;fillColor=none;" parent="WIyWlLk6GJQsqaUBKTNV-1" vertex="1">
          <mxGeometry x="30" y="690" width="120" height="100" as="geometry" />
        </mxCell>
        <mxCell id="ltN9Z3ExstUyf28XhYFt-27" value="是否存在sn" style="rhombus;whiteSpace=wrap;html=1;shadow=0;fontFamily=Helvetica;fontSize=12;align=center;strokeWidth=1;spacing=6;spacingTop=-4;" parent="WIyWlLk6GJQsqaUBKTNV-1" vertex="1">
          <mxGeometry x="560" y="400" width="120" height="40" as="geometry" />
        </mxCell>
        <mxCell id="ltN9Z3ExstUyf28XhYFt-31" style="edgeStyle=orthogonalEdgeStyle;rounded=0;orthogonalLoop=1;jettySize=auto;html=1;" parent="WIyWlLk6GJQsqaUBKTNV-1" source="ltN9Z3ExstUyf28XhYFt-4" target="ltN9Z3ExstUyf28XhYFt-27" edge="1">
          <mxGeometry relative="1" as="geometry" />
        </mxCell>
        <mxCell id="ltN9Z3ExstUyf28XhYFt-28" value="sn与本机一致" style="rhombus;whiteSpace=wrap;html=1;shadow=0;fontFamily=Helvetica;fontSize=12;align=center;strokeWidth=1;spacing=6;spacingTop=-4;" parent="WIyWlLk6GJQsqaUBKTNV-1" vertex="1">
          <mxGeometry x="560" y="480" width="120" height="40" as="geometry" />
        </mxCell>
        <mxCell id="ltN9Z3ExstUyf28XhYFt-32" style="edgeStyle=orthogonalEdgeStyle;rounded=0;orthogonalLoop=1;jettySize=auto;html=1;" parent="WIyWlLk6GJQsqaUBKTNV-1" source="ltN9Z3ExstUyf28XhYFt-27" target="ltN9Z3ExstUyf28XhYFt-28" edge="1">
          <mxGeometry relative="1" as="geometry" />
        </mxCell>
        <mxCell id="ltN9Z3ExstUyf28XhYFt-29" value="IP和PORT&lt;br&gt;是否为已连接" style="rhombus;whiteSpace=wrap;html=1;shadow=0;fontFamily=Helvetica;fontSize=12;align=center;strokeWidth=1;spacing=6;spacingTop=-4;" parent="WIyWlLk6GJQsqaUBKTNV-1" vertex="1">
          <mxGeometry x="540" y="570" width="160" height="60" as="geometry" />
        </mxCell>
        <mxCell id="ltN9Z3ExstUyf28XhYFt-33" style="edgeStyle=orthogonalEdgeStyle;rounded=0;orthogonalLoop=1;jettySize=auto;html=1;" parent="WIyWlLk6GJQsqaUBKTNV-1" source="ltN9Z3ExstUyf28XhYFt-28" target="ltN9Z3ExstUyf28XhYFt-29" edge="1">
          <mxGeometry relative="1" as="geometry" />
        </mxCell>
        <mxCell id="ltN9Z3ExstUyf28XhYFt-34" style="edgeStyle=orthogonalEdgeStyle;rounded=0;orthogonalLoop=1;jettySize=auto;html=1;entryX=0.5;entryY=0;entryDx=0;entryDy=0;" parent="WIyWlLk6GJQsqaUBKTNV-1" source="ltN9Z3ExstUyf28XhYFt-27" target="ltN9Z3ExstUyf28XhYFt-29" edge="1">
          <mxGeometry relative="1" as="geometry">
            <Array as="points">
              <mxPoint x="520" y="420" />
              <mxPoint x="520" y="550" />
              <mxPoint x="620" y="550" />
            </Array>
          </mxGeometry>
        </mxCell>
        <mxCell id="ltN9Z3ExstUyf28XhYFt-39" value="小于最大连接数" style="rhombus;whiteSpace=wrap;html=1;shadow=0;fontFamily=Helvetica;fontSize=12;align=center;strokeWidth=1;spacing=6;spacingTop=-4;" parent="WIyWlLk6GJQsqaUBKTNV-1" vertex="1">
          <mxGeometry x="560" y="660" width="120" height="40" as="geometry" />
        </mxCell>
        <mxCell id="ltN9Z3ExstUyf28XhYFt-40" style="edgeStyle=orthogonalEdgeStyle;rounded=0;orthogonalLoop=1;jettySize=auto;html=1;" parent="WIyWlLk6GJQsqaUBKTNV-1" source="ltN9Z3ExstUyf28XhYFt-29" target="ltN9Z3ExstUyf28XhYFt-39" edge="1">
          <mxGeometry relative="1" as="geometry" />
        </mxCell>
        <mxCell id="ltN9Z3ExstUyf28XhYFt-30" value="创建连接" style="rounded=1;whiteSpace=wrap;html=1;fontSize=12;glass=0;strokeWidth=1;shadow=0;" parent="WIyWlLk6GJQsqaUBKTNV-1" vertex="1">
          <mxGeometry x="560" y="720" width="120" height="40" as="geometry" />
        </mxCell>
        <mxCell id="ltN9Z3ExstUyf28XhYFt-41" style="edgeStyle=orthogonalEdgeStyle;rounded=0;orthogonalLoop=1;jettySize=auto;html=1;" parent="WIyWlLk6GJQsqaUBKTNV-1" source="ltN9Z3ExstUyf28XhYFt-39" target="ltN9Z3ExstUyf28XhYFt-30" edge="1">
          <mxGeometry relative="1" as="geometry" />
        </mxCell>
        <mxCell id="ltN9Z3ExstUyf28XhYFt-58" value="释放资源" style="rounded=1;whiteSpace=wrap;html=1;fontSize=12;glass=0;strokeWidth=1;shadow=0;" parent="WIyWlLk6GJQsqaUBKTNV-1" vertex="1">
          <mxGeometry x="1000" y="280" width="120" height="40" as="geometry" />
        </mxCell>
        <mxCell id="ltN9Z3ExstUyf28XhYFt-64" value="" style="endArrow=classic;html=1;rounded=0;dashed=1;fillColor=#d80073;strokeColor=#A50040;strokeWidth=3;entryX=0.5;entryY=1;entryDx=0;entryDy=0;" parent="WIyWlLk6GJQsqaUBKTNV-1" target="ltN9Z3ExstUyf28XhYFt-57" edge="1">
          <mxGeometry width="50" height="50" relative="1" as="geometry">
            <mxPoint x="740" y="440" as="sourcePoint" />
            <mxPoint x="820" y="410" as="targetPoint" />
          </mxGeometry>
        </mxCell>
        <mxCell id="ltN9Z3ExstUyf28XhYFt-65" value="" style="endArrow=classic;html=1;rounded=0;entryX=1;entryY=0.5;entryDx=0;entryDy=0;exitX=0;exitY=0.5;exitDx=0;exitDy=0;dashed=1;fillColor=#ffe6cc;strokeColor=#d79b00;strokeWidth=3;dashPattern=1 4;" parent="WIyWlLk6GJQsqaUBKTNV-1" source="ltN9Z3ExstUyf28XhYFt-45" target="WIyWlLk6GJQsqaUBKTNV-3" edge="1">
          <mxGeometry width="50" height="50" relative="1" as="geometry">
            <mxPoint x="740" y="70" as="sourcePoint" />
            <mxPoint x="790" y="20" as="targetPoint" />
            <Array as="points">
              <mxPoint x="640" y="60" />
            </Array>
          </mxGeometry>
        </mxCell>
        <mxCell id="ltN9Z3ExstUyf28XhYFt-70" style="edgeStyle=orthogonalEdgeStyle;rounded=0;orthogonalLoop=1;jettySize=auto;html=1;" parent="WIyWlLk6GJQsqaUBKTNV-1" source="ltN9Z3ExstUyf28XhYFt-66" edge="1">
          <mxGeometry relative="1" as="geometry">
            <mxPoint x="900" y="480" as="targetPoint" />
          </mxGeometry>
        </mxCell>
        <mxCell id="ltN9Z3ExstUyf28XhYFt-66" value="创建TCP服务" style="rounded=1;whiteSpace=wrap;html=1;fontSize=12;glass=0;strokeWidth=1;shadow=0;" parent="WIyWlLk6GJQsqaUBKTNV-1" vertex="1">
          <mxGeometry x="840" y="400" width="120" height="40" as="geometry" />
        </mxCell>
        <mxCell id="ltN9Z3ExstUyf28XhYFt-67" value="" style="endArrow=classic;html=1;rounded=0;entryX=1;entryY=0.5;entryDx=0;entryDy=0;exitX=0;exitY=0.5;exitDx=0;exitDy=0;dashed=1;fillColor=#ffe6cc;strokeColor=#d79b00;strokeWidth=3;dashPattern=1 4;" parent="WIyWlLk6GJQsqaUBKTNV-1" source="ltN9Z3ExstUyf28XhYFt-66" target="ltN9Z3ExstUyf28XhYFt-30" edge="1">
          <mxGeometry width="50" height="50" relative="1" as="geometry">
            <mxPoint x="1230" y="670" as="sourcePoint" />
            <mxPoint x="830" y="670" as="targetPoint" />
            <Array as="points">
              <mxPoint x="760" y="470" />
              <mxPoint x="760" y="550" />
              <mxPoint x="760" y="680" />
            </Array>
          </mxGeometry>
        </mxCell>
        <mxCell id="ltN9Z3ExstUyf28XhYFt-82" style="edgeStyle=orthogonalEdgeStyle;rounded=0;orthogonalLoop=1;jettySize=auto;html=1;" parent="WIyWlLk6GJQsqaUBKTNV-1" source="ltN9Z3ExstUyf28XhYFt-69" target="ltN9Z3ExstUyf28XhYFt-72" edge="1">
          <mxGeometry relative="1" as="geometry" />
        </mxCell>
        <mxCell id="ltN9Z3ExstUyf28XhYFt-83" style="edgeStyle=orthogonalEdgeStyle;rounded=0;orthogonalLoop=1;jettySize=auto;html=1;entryX=0.5;entryY=0;entryDx=0;entryDy=0;" parent="WIyWlLk6GJQsqaUBKTNV-1" source="ltN9Z3ExstUyf28XhYFt-69" target="ltN9Z3ExstUyf28XhYFt-74" edge="1">
          <mxGeometry relative="1" as="geometry">
            <Array as="points">
              <mxPoint x="1140" y="580" />
              <mxPoint x="1140" y="460" />
              <mxPoint x="900" y="460" />
            </Array>
          </mxGeometry>
        </mxCell>
        <mxCell id="ltN9Z3ExstUyf28XhYFt-69" value="超过连接次数" style="rhombus;whiteSpace=wrap;html=1;shadow=0;fontFamily=Helvetica;fontSize=12;align=center;strokeWidth=1;spacing=6;spacingTop=-4;" parent="WIyWlLk6GJQsqaUBKTNV-1" vertex="1">
          <mxGeometry x="1000" y="560" width="120" height="40" as="geometry" />
        </mxCell>
        <mxCell id="ltN9Z3ExstUyf28XhYFt-72" value="释放资源" style="rounded=1;whiteSpace=wrap;html=1;fontSize=12;glass=0;strokeWidth=1;shadow=0;" parent="WIyWlLk6GJQsqaUBKTNV-1" vertex="1">
          <mxGeometry x="1000" y="720" width="120" height="40" as="geometry" />
        </mxCell>
        <mxCell id="ltN9Z3ExstUyf28XhYFt-78" style="edgeStyle=orthogonalEdgeStyle;rounded=0;orthogonalLoop=1;jettySize=auto;html=1;" parent="WIyWlLk6GJQsqaUBKTNV-1" target="ltN9Z3ExstUyf28XhYFt-76" edge="1">
          <mxGeometry relative="1" as="geometry">
            <mxPoint x="900" y="600" as="sourcePoint" />
          </mxGeometry>
        </mxCell>
        <mxCell id="ltN9Z3ExstUyf28XhYFt-75" style="edgeStyle=orthogonalEdgeStyle;rounded=0;orthogonalLoop=1;jettySize=auto;html=1;" parent="WIyWlLk6GJQsqaUBKTNV-1" source="ltN9Z3ExstUyf28XhYFt-74" edge="1">
          <mxGeometry relative="1" as="geometry">
            <mxPoint x="900" y="560" as="targetPoint" />
          </mxGeometry>
        </mxCell>
        <mxCell id="ltN9Z3ExstUyf28XhYFt-81" style="edgeStyle=orthogonalEdgeStyle;rounded=0;orthogonalLoop=1;jettySize=auto;html=1;entryX=0.5;entryY=0;entryDx=0;entryDy=0;" parent="WIyWlLk6GJQsqaUBKTNV-1" source="ltN9Z3ExstUyf28XhYFt-74" target="ltN9Z3ExstUyf28XhYFt-69" edge="1">
          <mxGeometry relative="1" as="geometry" />
        </mxCell>
        <mxCell id="ltN9Z3ExstUyf28XhYFt-74" value="连接服务端" style="rhombus;whiteSpace=wrap;html=1;shadow=0;fontFamily=Helvetica;fontSize=12;align=center;strokeWidth=1;spacing=6;spacingTop=-4;" parent="WIyWlLk6GJQsqaUBKTNV-1" vertex="1">
          <mxGeometry x="840" y="480" width="120" height="40" as="geometry" />
        </mxCell>
        <mxCell id="ltN9Z3ExstUyf28XhYFt-79" style="edgeStyle=orthogonalEdgeStyle;rounded=0;orthogonalLoop=1;jettySize=auto;html=1;" parent="WIyWlLk6GJQsqaUBKTNV-1" source="ltN9Z3ExstUyf28XhYFt-76" target="ltN9Z3ExstUyf28XhYFt-77" edge="1">
          <mxGeometry relative="1" as="geometry" />
        </mxCell>
        <mxCell id="ltN9Z3ExstUyf28XhYFt-76" value="读取数据" style="rhombus;whiteSpace=wrap;html=1;shadow=0;fontFamily=Helvetica;fontSize=12;align=center;strokeWidth=1;spacing=6;spacingTop=-4;" parent="WIyWlLk6GJQsqaUBKTNV-1" vertex="1">
          <mxGeometry x="840" y="640" width="120" height="40" as="geometry" />
        </mxCell>
        <mxCell id="ltN9Z3ExstUyf28XhYFt-77" value="处理数据" style="rounded=1;whiteSpace=wrap;html=1;fontSize=12;glass=0;strokeWidth=1;shadow=0;" parent="WIyWlLk6GJQsqaUBKTNV-1" vertex="1">
          <mxGeometry x="840" y="720" width="120" height="40" as="geometry" />
        </mxCell>
        <mxCell id="ltN9Z3ExstUyf28XhYFt-85" value="在这里做协议数据处理" style="text;html=1;strokeColor=none;fillColor=none;align=center;verticalAlign=middle;whiteSpace=wrap;rounded=0;" parent="WIyWlLk6GJQsqaUBKTNV-1" vertex="1">
          <mxGeometry x="835" y="770" width="130" height="30" as="geometry" />
        </mxCell>
        <mxCell id="ltN9Z3ExstUyf28XhYFt-93" style="edgeStyle=orthogonalEdgeStyle;rounded=0;orthogonalLoop=1;jettySize=auto;html=1;entryX=0.5;entryY=0;entryDx=0;entryDy=0;" parent="WIyWlLk6GJQsqaUBKTNV-1" source="ltN9Z3ExstUyf28XhYFt-86" target="ltN9Z3ExstUyf28XhYFt-74" edge="1">
          <mxGeometry relative="1" as="geometry">
            <Array as="points">
              <mxPoint x="810" y="580" />
              <mxPoint x="810" y="460" />
              <mxPoint x="900" y="460" />
            </Array>
          </mxGeometry>
        </mxCell>
        <mxCell id="ltN9Z3ExstUyf28XhYFt-94" value="错误" style="edgeLabel;html=1;align=center;verticalAlign=middle;resizable=0;points=[];" parent="ltN9Z3ExstUyf28XhYFt-93" vertex="1" connectable="0">
          <mxGeometry x="-0.8569" y="1" relative="1" as="geometry">
            <mxPoint x="9" y="-11" as="offset" />
          </mxGeometry>
        </mxCell>
        <mxCell id="ltN9Z3ExstUyf28XhYFt-86" value="select接收数据" style="rhombus;whiteSpace=wrap;html=1;shadow=0;fontFamily=Helvetica;fontSize=12;align=center;strokeWidth=1;spacing=6;spacingTop=-4;" parent="WIyWlLk6GJQsqaUBKTNV-1" vertex="1">
          <mxGeometry x="840" y="560" width="120" height="40" as="geometry" />
        </mxCell>
        <mxCell id="ltN9Z3ExstUyf28XhYFt-88" style="edgeStyle=orthogonalEdgeStyle;rounded=0;orthogonalLoop=1;jettySize=auto;html=1;entryX=0.5;entryY=0;entryDx=0;entryDy=0;" parent="WIyWlLk6GJQsqaUBKTNV-1" source="ltN9Z3ExstUyf28XhYFt-87" target="ltN9Z3ExstUyf28XhYFt-58" edge="1">
          <mxGeometry relative="1" as="geometry" />
        </mxCell>
        <mxCell id="ltN9Z3ExstUyf28XhYFt-89" value="错误" style="edgeLabel;html=1;align=center;verticalAlign=middle;resizable=0;points=[];" parent="ltN9Z3ExstUyf28XhYFt-88" vertex="1" connectable="0">
          <mxGeometry x="-0.6464" y="1" relative="1" as="geometry">
            <mxPoint x="-22" y="-9" as="offset" />
          </mxGeometry>
        </mxCell>
        <mxCell id="ltN9Z3ExstUyf28XhYFt-87" value="select接收数据" style="rhombus;whiteSpace=wrap;html=1;shadow=0;fontFamily=Helvetica;fontSize=12;align=center;strokeWidth=1;spacing=6;spacingTop=-4;" parent="WIyWlLk6GJQsqaUBKTNV-1" vertex="1">
          <mxGeometry x="840" y="120" width="120" height="40" as="geometry" />
        </mxCell>
        <mxCell id="IhjadHrzamxmTvV3WSwE-0" value="" style="endArrow=none;dashed=1;html=1;movable=1;resizable=1;rotatable=1;deletable=1;editable=1;locked=0;connectable=1;strokeWidth=3;curved=1;fillColor=#d80073;strokeColor=#A50040;" edge="1" parent="WIyWlLk6GJQsqaUBKTNV-1">
          <mxGeometry width="50" height="50" relative="1" as="geometry">
            <mxPoint x="240" y="240" as="sourcePoint" />
            <mxPoint x="20" y="240" as="targetPoint" />
          </mxGeometry>
        </mxCell>
        <mxCell id="IhjadHrzamxmTvV3WSwE-1" value="" style="endArrow=none;dashed=1;html=1;movable=1;resizable=1;rotatable=1;deletable=1;editable=1;locked=0;connectable=1;strokeWidth=3;curved=1;fillColor=#d80073;strokeColor=#A50040;" edge="1" parent="WIyWlLk6GJQsqaUBKTNV-1">
          <mxGeometry width="50" height="50" relative="1" as="geometry">
            <mxPoint x="240" y="240" as="sourcePoint" />
            <mxPoint x="240" y="90" as="targetPoint" />
          </mxGeometry>
        </mxCell>
        <mxCell id="IhjadHrzamxmTvV3WSwE-2" value="eth_link" style="swimlane;whiteSpace=wrap;html=1;" vertex="1" parent="WIyWlLk6GJQsqaUBKTNV-1">
          <mxGeometry x="20" y="90" width="200" height="120" as="geometry" />
        </mxCell>
        <mxCell id="IhjadHrzamxmTvV3WSwE-3" value="eth_link.c" style="whiteSpace=wrap;html=1;" vertex="1" parent="IhjadHrzamxmTvV3WSwE-2">
          <mxGeometry x="60" y="30" width="80" height="40" as="geometry" />
        </mxCell>
        <mxCell id="IhjadHrzamxmTvV3WSwE-4" style="edgeStyle=orthogonalEdgeStyle;rounded=0;orthogonalLoop=1;jettySize=auto;html=1;entryX=0;entryY=0.5;entryDx=0;entryDy=0;" edge="1" parent="IhjadHrzamxmTvV3WSwE-2" source="IhjadHrzamxmTvV3WSwE-5" target="IhjadHrzamxmTvV3WSwE-3">
          <mxGeometry relative="1" as="geometry" />
        </mxCell>
        <mxCell id="IhjadHrzamxmTvV3WSwE-5" value="udp_socket.c" style="whiteSpace=wrap;html=1;" vertex="1" parent="IhjadHrzamxmTvV3WSwE-2">
          <mxGeometry y="80" width="80" height="40" as="geometry" />
        </mxCell>
        <mxCell id="IhjadHrzamxmTvV3WSwE-6" style="edgeStyle=orthogonalEdgeStyle;rounded=0;orthogonalLoop=1;jettySize=auto;html=1;entryX=1;entryY=0.5;entryDx=0;entryDy=0;" edge="1" parent="IhjadHrzamxmTvV3WSwE-2" source="IhjadHrzamxmTvV3WSwE-7" target="IhjadHrzamxmTvV3WSwE-3">
          <mxGeometry relative="1" as="geometry" />
        </mxCell>
        <mxCell id="IhjadHrzamxmTvV3WSwE-7" value="tcp_client.c" style="whiteSpace=wrap;html=1;" vertex="1" parent="IhjadHrzamxmTvV3WSwE-2">
          <mxGeometry x="120" y="80" width="80" height="40" as="geometry" />
        </mxCell>
      </root>
    </mxGraphModel>
  </diagram>
</mxfile>
